<mxfile host="app.diagrams.net" modified="2021-09-09T09:28:15.959Z" agent="5.0 (Windows)" etag="17GDo4sFZro-BE0lgdi-" version="15.1.2" type="github">
  <diagram id="PSfZSLlQDoP36kE74XVU" name="Page-1">
    <mxGraphModel dx="2889" dy="1112" grid="1" gridSize="10" guides="1" tooltips="1" connect="1" arrows="1" fold="1" page="1" pageScale="1" pageWidth="827" pageHeight="1169" math="0" shadow="0">
      <root>
        <mxCell id="0" />
        <mxCell id="1" parent="0" />
        <mxCell id="QF4vBQPAdgZfjIRWzR2f-1" value="SERVER" style="rounded=0;whiteSpace=wrap;html=1;fontSize=18;" vertex="1" parent="1">
          <mxGeometry x="-413" y="250" width="120" height="60" as="geometry" />
        </mxCell>
        <mxCell id="QF4vBQPAdgZfjIRWzR2f-2" value="CLIENT" style="rounded=0;whiteSpace=wrap;html=1;fontSize=18;" vertex="1" parent="1">
          <mxGeometry x="850" y="190" width="120" height="60" as="geometry" />
        </mxCell>
        <mxCell id="QF4vBQPAdgZfjIRWzR2f-3" value="RTSP 音视频编解码传输流程图" style="rounded=0;whiteSpace=wrap;html=1;fillColor=#d5e8d4;strokeColor=#82b366;strokeWidth=3;fontSize=19;" vertex="1" parent="1">
          <mxGeometry x="-90" y="80" width="410" height="60" as="geometry" />
        </mxCell>
        <mxCell id="QF4vBQPAdgZfjIRWzR2f-4" value="" style="rounded=1;whiteSpace=wrap;html=1;fontSize=18;strokeWidth=3;" vertex="1" parent="1">
          <mxGeometry x="-610" y="330" width="660" height="250" as="geometry" />
        </mxCell>
        <mxCell id="QF4vBQPAdgZfjIRWzR2f-5" value="YUV图像数据" style="rounded=1;whiteSpace=wrap;html=1;fontSize=18;strokeWidth=3;" vertex="1" parent="1">
          <mxGeometry x="-580" y="370" width="170" height="60" as="geometry" />
        </mxCell>
        <mxCell id="QF4vBQPAdgZfjIRWzR2f-6" value="WWC音频数据" style="rounded=1;whiteSpace=wrap;html=1;fontSize=16;strokeWidth=3;" vertex="1" parent="1">
          <mxGeometry x="-580" y="470" width="170" height="60" as="geometry" />
        </mxCell>
        <mxCell id="QF4vBQPAdgZfjIRWzR2f-8" value="" style="shape=mxgraph.signs.tech.video_camera;html=1;pointerEvents=1;fillColor=#000000;strokeColor=none;verticalLabelPosition=bottom;verticalAlign=top;align=center;fontSize=16;rotation=-180;" vertex="1" parent="1">
          <mxGeometry x="-720" y="505" width="98" height="40" as="geometry" />
        </mxCell>
        <mxCell id="QF4vBQPAdgZfjIRWzR2f-9" value="" style="shape=mxgraph.signs.tech.video_camera;html=1;pointerEvents=1;fillColor=#000000;strokeColor=none;verticalLabelPosition=bottom;verticalAlign=top;align=center;fontSize=16;rotation=-180;" vertex="1" parent="1">
          <mxGeometry x="-720" y="425" width="98" height="40" as="geometry" />
        </mxCell>
        <mxCell id="QF4vBQPAdgZfjIRWzR2f-10" value="" style="shape=mxgraph.signs.tech.video_camera;html=1;pointerEvents=1;fillColor=#000000;strokeColor=none;verticalLabelPosition=bottom;verticalAlign=top;align=center;fontSize=16;rotation=-180;" vertex="1" parent="1">
          <mxGeometry x="-720" y="345" width="98" height="40" as="geometry" />
        </mxCell>
      </root>
    </mxGraphModel>
  </diagram>
</mxfile>
